# xmcd
#
# Track frame offsets:
#	150
#	16380
#	35892
#	54450
#	68611
#	84111
#	105414
#	124205
#	146676
#	162469
#
# Disc length: 2402 seconds
#
# Revision: 1
# Processed by: cddbd v1.5.1PL2 Copyright (c) Steve Scherf et al.
# Submitted via: audiograbber 1.83.01
#
DISCID=8109600a
DTITLE=Richie Pollack - Stew
DYEAR=2005
DGENRE=Blues
TTITLE0=Tchoupitoulas Grove
TTITLE1=High Life
TTITLE2=Under Cover of Darkness
TTITLE3=Shoobadoo
TTITLE4="Lashes"
TTITLE5=Call Shotgun
TTITLE6=Mississippi Saxophone
TTITLE7=Drop 2
TTITLE8=Satisfaction
TTITLE9=Sugar buzz
EXTD=
EXTT0=
EXTT1=
EXTT2=
EXTT3=
EXTT4=
EXTT5=
EXTT6=
EXTT7=
EXTT8=
EXTT9=
PLAYORDER=
